<svg xmlns="http://www.w3.org/2000/svg" viewBox="0 0 448.28 35.24"><title>rasel</title><g id="Layer_2" data-name="Layer 2"><g id="Layer_1-2" data-name="Layer 1"><path d="M10.76,11.88a7.34,7.34,0,0,0-1.67,1.4,12.83,12.83,0,0,0-1.56,2.14,14.55,14.55,0,0,0-1.23,2.7,13.09,13.09,0,0,0-.63,3,11.54,11.54,0,0,0,.13,3.1,9,9,0,0,0,1.13,3,4.42,4.42,0,0,1,3.06.3,3.67,3.67,0,0,1,1.6,1.74,3.93,3.93,0,0,1,.23,2.28,3.17,3.17,0,0,1-1.06,1.92,4.5,4.5,0,0,1-2.27,1.18,5,5,0,0,1-2.5-.2A6.86,6.86,0,0,1,3.59,33,8.86,8.86,0,0,1,1.65,30.6,11.64,11.64,0,0,1,.09,25.7a16.37,16.37,0,0,1,.36-5.48A17,17,0,0,1,2.61,15a13.8,13.8,0,0,1,3.84-4.1h8.64l-1.44,1Z"/><path d="M34.36,11.88H32.28V29.16L25.57,33V25.32a6.75,6.75,0,0,0-2.47-2.1,4.07,4.07,0,0,0-2.82-.3,2.67,2.67,0,0,1,.84,1.5,12.43,12.43,0,0,1,.12,1.86,3.1,3.1,0,0,1-2,2.12,6,6,0,0,1-3.31.28,5.61,5.61,0,0,1-2.15-1.32,5,5,0,0,1-1.46-4,6.36,6.36,0,0,1,.53-2.12,6.45,6.45,0,0,1,1.21-1.84A5.57,5.57,0,0,1,16,18.12a1.56,1.56,0,0,0,.77-.24,2.37,2.37,0,0,1,1.15-.24,2.59,2.59,0,0,0-1-1.66,5.82,5.82,0,0,0-1.63-.86,8.65,8.65,0,0,0-2.2-.36V11.88H9.6l1.93-1H36.28Zm-8.79,0H20.76a8.43,8.43,0,0,1,1.75,2.52,7.69,7.69,0,0,1,.65,3.24c.35.24.68.45,1,.64l.81.48a3.69,3.69,0,0,0,.6.32Z"/><path d="M58,11.88H56V29.16L48.76,33V23.88l-2.87-1.44a6.39,6.39,0,0,1-3.17,3.9,13,13,0,0,1-6.44,1.38V22.44a5.89,5.89,0,0,0,2.36-.4,4.24,4.24,0,0,0,1.46-1,3.21,3.21,0,0,0,.76-1.24,3.8,3.8,0,0,0,.22-1.22,4.17,4.17,0,0,0-.34-1.68,4.3,4.3,0,0,0-4-2.64v-2.4h-3.6l1.92-1H60Zm-9.28,0H43.49a3.32,3.32,0,0,1,1.79,1.68,11,11,0,0,1,1.08,3.12l2.4,1.44Z"/><path d="M71.57,10.92l-1.92,1H67.17V29.16L60,33V11.88H55.65l1.92-1Z"/><path d="M92.92,11.88H90.84V29.16L83.64,33V23.88l-2.88-1.44a6.38,6.38,0,0,1-3.16,3.9,13,13,0,0,1-6.44,1.38V22.44a5.89,5.89,0,0,0,2.36-.4,4.24,4.24,0,0,0,1.46-1,3.33,3.33,0,0,0,.76-1.24A3.8,3.8,0,0,0,76,18.6a4.17,4.17,0,0,0-.34-1.68,4.23,4.23,0,0,0-.92-1.38,4.37,4.37,0,0,0-3.06-1.26v-2.4H68l1.92-1H94.84Zm-9.28,0H78.36a3.3,3.3,0,0,1,1.8,1.68,11,11,0,0,1,1.08,3.12l2.4,1.44Z"/><path d="M94,2.2l-9.6,5.56L80.6,5.56,90.2,0Z"/><path d="M128.56,11.88h-2.68v16.8L118.68,33l-11.52-6.72V18.12l11.52-6.24h-13.8l1.44-1H130ZM110,30.12a2.06,2.06,0,0,1,1,.24,2.41,2.41,0,0,1,.76.6,3.15,3.15,0,0,1,.48.78,2,2,0,0,1,.18.78,2.4,2.4,0,1,1-4.8,0,2,2,0,0,1,.18-.78,3.15,3.15,0,0,1,.48-.78,2.57,2.57,0,0,1,.74-.6A2.08,2.08,0,0,1,110,30.12Zm9.12-11.52-5.76,2.88,5.76,3.36Z"/><path d="M141.48,10.92l-1.92,1h-2.48V29.16L129.88,33V11.88h-4.32l1.92-1Z"/><path d="M152.2,11.88a6,6,0,0,0-1.88,1.2,10.16,10.16,0,0,0-1.68,2,14.74,14.74,0,0,0-1.3,2.64,12.14,12.14,0,0,0-.7,3,12.61,12.61,0,0,0,.12,3.24,10.54,10.54,0,0,0,1.12,3.2,2.94,2.94,0,0,1,2.46-.4,3.52,3.52,0,0,1,1.94,1.36,3.65,3.65,0,0,1,.68,2.32A3.56,3.56,0,0,1,151.72,33a4,4,0,0,1-2.16,1.12,5.29,5.29,0,0,1-2.4-.16,6.56,6.56,0,0,1-2.28-1.24,7.68,7.68,0,0,1-1.8-2.12,13.49,13.49,0,0,1-1.4-3.34,17.07,17.07,0,0,1-.56-3.6A19.93,19.93,0,0,1,141.3,20a18,18,0,0,1,.82-3.36,12.85,12.85,0,0,1,1.4-2.8,8,8,0,0,1,1.88-2h-6.24l1.92-1h15.44l-1.44,1Z"/><path d="M175,11.88h-2.08V29.16L165.68,33V23.88l-2.88-1.44a6.38,6.38,0,0,1-3.16,3.9,13,13,0,0,1-6.44,1.38V22.44a5.89,5.89,0,0,0,2.36-.4,4.24,4.24,0,0,0,1.46-1,3.33,3.33,0,0,0,.76-1.24A3.8,3.8,0,0,0,158,18.6a4.17,4.17,0,0,0-.34-1.68,4.23,4.23,0,0,0-.92-1.38,4.37,4.37,0,0,0-3.06-1.26v-2.4h-3.6l1.92-1h24.88Zm-9.28,0H160.4a3.3,3.3,0,0,1,1.8,1.68,11,11,0,0,1,1.08,3.12l2.4,1.44Z"/><path d="M201.72,11.88h-2.08v16.8L192.92,33V22a1.52,1.52,0,0,0-.4-1,1.76,1.76,0,0,0-.94-.62,1.39,1.39,0,0,0-1.1.2,2.56,2.56,0,0,0-.92,1.42h-2.88a3.33,3.33,0,0,0-.94-1.56,1.77,1.77,0,0,0-1.12-.48,1.21,1.21,0,0,0-.92.42,1.65,1.65,0,0,0-.38,1.14,4.31,4.31,0,0,1,2.34,1.62,3.2,3.2,0,0,1,.56,1.28,3.24,3.24,0,0,1,0,1.42,4,4,0,0,1-4.8,2.88A5.8,5.8,0,0,1,179,27.4a6.35,6.35,0,0,1-1.48-2,7.48,7.48,0,0,1-.64-2.4,7.89,7.89,0,0,1,.16-2.48,6.44,6.44,0,0,1,1.58-3.28,6.76,6.76,0,0,1,2.84-1.86,7,7,0,0,1,3.4-.24,6.49,6.49,0,0,1,3.22,1.54,3.45,3.45,0,0,1,2-.9,3.75,3.75,0,0,1,2.76.9v-4.8H175l1.92-1h26.76Z"/><path d="M226.72,11.88a7.17,7.17,0,0,0-1.68,1.4,12.83,12.83,0,0,0-1.56,2.14,14.53,14.53,0,0,0-1.22,2.7,13.66,13.66,0,0,0-.64,3,12,12,0,0,0,.14,3.1,9.19,9.19,0,0,0,1.12,3,4.42,4.42,0,0,1,3.06.3,3.62,3.62,0,0,1,1.6,1.74,3.85,3.85,0,0,1,.24,2.28,3.17,3.17,0,0,1-1.06,1.92,4.49,4.49,0,0,1-2.28,1.18,5,5,0,0,1-2.5-.2,7,7,0,0,1-2.4-1.42,9.25,9.25,0,0,1-1.94-2.44A11.93,11.93,0,0,1,216,25.7a16.9,16.9,0,0,1,.36-5.48,17.48,17.48,0,0,1,2.16-5.2,14.06,14.06,0,0,1,3.84-4.1H231l-1.44,1Z"/><path d="M250.32,11.88h-2.08V29.16L241.52,33V25.32a6.72,6.72,0,0,0-2.46-2.1,4.07,4.07,0,0,0-2.82-.3,2.73,2.73,0,0,1,.84,1.5,12.43,12.43,0,0,1,.12,1.86,3.1,3.1,0,0,1-2,2.12,6,6,0,0,1-3.32.28,5.64,5.64,0,0,1-2.14-1.32,5,5,0,0,1-1.46-4,6.6,6.6,0,0,1,.52-2.12,6.7,6.7,0,0,1,1.22-1.84,5.63,5.63,0,0,1,1.86-1.32,1.59,1.59,0,0,0,.78-.24,2.3,2.3,0,0,1,1.14-.24,2.55,2.55,0,0,0-1-1.66,5.77,5.77,0,0,0-1.62-.86,8.65,8.65,0,0,0-2.2-.36V11.88h-3.48l1.92-1h24.76Zm-8.8,0h-4.8a8.59,8.59,0,0,1,1.74,2.52,7.69,7.69,0,0,1,.66,3.24c.35.24.68.45,1,.64l.8.48a4.77,4.77,0,0,0,.6.32Z"/><path d="M271.24,3.72a16.28,16.28,0,0,0-5.08-.22,8.69,8.69,0,0,0-3.7,1.3,6.46,6.46,0,0,0-2.26,2.56,8.13,8.13,0,0,0-.76,3.56h4l-1.92,1h-2.08V29.16L252.24,33V11.88h-3.12l1.92-1h1.2a14.45,14.45,0,0,1,.8-5.1,8.71,8.71,0,0,1,2.24-3.4A8.39,8.39,0,0,1,258.72.56a15,15,0,0,1,4.4-.5,26.93,26.93,0,0,1,5.12.66,48.73,48.73,0,0,1,5.6,1.6Z"/><path d="M289.68,11.88H287.6V29.16L280.88,33V17.16a10.21,10.21,0,0,0-1.84-1,2.78,2.78,0,0,0-1.3-.24,1.61,1.61,0,0,0-.92.4,5,5,0,0,0-.74.86,3.38,3.38,0,0,1,1.4,1,4.19,4.19,0,0,1,.84,1.44,4.05,4.05,0,0,1,.22,1.66,3.27,3.27,0,0,1-.5,1.56,3.17,3.17,0,0,1-1.28,1.14,4.57,4.57,0,0,1-2.12.44,4.41,4.41,0,0,1-1.86-.36,5.25,5.25,0,0,1-1.5-1.08,5.57,5.57,0,0,1-2.2,1.44,4.76,4.76,0,0,1-2.6,0A3.71,3.71,0,0,1,264,22.68a3.93,3.93,0,0,1-.54-2.56,4.11,4.11,0,0,1,1.18-2.34,4,4,0,0,1,2.76-1.1,3.11,3.11,0,0,0-.08-1.56,4.34,4.34,0,0,0-.82-1.56,4.68,4.68,0,0,0-1.46-1.2,4,4,0,0,0-2-.48H260.8l1.44-1H265a10.93,10.93,0,0,1,3.9.66,7.87,7.87,0,0,1,2.82,1.74,6.52,6.52,0,0,1,2.08-1.7,7.82,7.82,0,0,1,2.42-.8,6.18,6.18,0,0,1,2.32.08,3.67,3.67,0,0,1,1.82,1l1.92-1h9.28Z"/><path d="M313.4,11.88h-2.08V29.16L304.6,33V23.4a7.7,7.7,0,0,0-2.82-1.92,7.6,7.6,0,0,0-2.46-.48,3.16,3.16,0,0,1,1,2.18,3.58,3.58,0,0,1-.6,2.16A4.53,4.53,0,0,1,298,26.9a3.86,3.86,0,0,1-2.5.34,5.33,5.33,0,0,1-2.94-2.2,6.08,6.08,0,0,1-.94-3.22,6.62,6.62,0,0,1,.88-3.26A5.7,5.7,0,0,1,295,16.2a8.52,8.52,0,0,1,4.74-.68,16.32,16.32,0,0,1,4.86,1.64V11.88H288.92l1.92-1h24.48Z"/><path d="M326.92,10.92l-1.92,1h-2.48V29.16L315.32,33V11.88H311l1.92-1Z"/><path d="M347.92,11.88h-2.68v16.8L338,33l-11.52-6.72V18.12L338,11.88h-13.8l1.44-1h23.68ZM329.4,30.12a2.06,2.06,0,0,1,1,.24,2.41,2.41,0,0,1,.76.6,3.15,3.15,0,0,1,.48.78,2,2,0,0,1,.18.78,2.4,2.4,0,1,1-4.8,0,2,2,0,0,1,.18-.78,3.15,3.15,0,0,1,.48-.78,2.57,2.57,0,0,1,.74-.6A2.08,2.08,0,0,1,329.4,30.12Zm9.12-11.52-5.76,2.88,5.76,3.36Z"/><path d="M337.44,3.72l-2.6-1.4a44.78,44.78,0,0,1,8.24-2,16.45,16.45,0,0,1,6.88.3,8.53,8.53,0,0,1,4.72,3.32c1.18,1.64,1.76,4,1.76,7h4l-1.68,1h-2.32V29.16L349.24,33V11.88h-4.16l2.16-1h2a8,8,0,0,0-.76-3.56,6.39,6.39,0,0,0-2.26-2.56,8.64,8.64,0,0,0-3.7-1.3A16.29,16.29,0,0,0,337.44,3.72Z"/><path d="M383.52,11.88a7.17,7.17,0,0,0-1.68,1.4,12.83,12.83,0,0,0-1.56,2.14,14.53,14.53,0,0,0-1.22,2.7,13.11,13.11,0,0,0-.64,3,12,12,0,0,0,.14,3.1,9.19,9.19,0,0,0,1.12,3,4.42,4.42,0,0,1,3.06.3,3.67,3.67,0,0,1,1.6,1.74,3.85,3.85,0,0,1,.24,2.28,3.17,3.17,0,0,1-1.06,1.92,4.49,4.49,0,0,1-2.28,1.18,5,5,0,0,1-2.5-.2,7,7,0,0,1-2.4-1.42,9.25,9.25,0,0,1-1.94-2.44,11.93,11.93,0,0,1-1.56-4.9,16.9,16.9,0,0,1,.36-5.48,17.48,17.48,0,0,1,2.16-5.2,14.06,14.06,0,0,1,3.84-4.1h8.64l-1.44,1Z"/><path d="M402.6,21.8l-.4.48c-.4.45-.8.95-1.22,1.48s-.8,1.09-1.18,1.68a9.64,9.64,0,0,0-.88,1.76,4.68,4.68,0,0,0-.3,1.66,1.86,1.86,0,0,0,.62,1.34,3.41,3.41,0,0,0,2,1,5.47,5.47,0,0,0,2.28-.16,6.07,6.07,0,0,0,2-1,3.45,3.45,0,0,0,1.22-1.52,4.37,4.37,0,0,1-2-1.08,3.25,3.25,0,0,1-.88-1.56,3.13,3.13,0,0,1,.1-1.66,3.56,3.56,0,0,1,2.54-2.32A4.21,4.21,0,0,1,411,23.74a4.66,4.66,0,0,1,.6,2.72,7.62,7.62,0,0,1-.9,3.06,10.36,10.36,0,0,1-2.14,2.84,11.35,11.35,0,0,1-3.14,2.1,8.64,8.64,0,0,1-3.84.78,12.79,12.79,0,0,1-5.24-1,6.13,6.13,0,0,1-2.76-2.34,5.93,5.93,0,0,1-.8-3.18,11.42,11.42,0,0,1,.64-3.48A14.8,14.8,0,0,1,395,22a16.68,16.68,0,0,1,1.28-1.68,10.39,10.39,0,0,1-1.6-1.84,5.81,5.81,0,0,1-1.56,2.14A7.42,7.42,0,0,1,390.88,22a9.81,9.81,0,0,1-2.78.58,12.93,12.93,0,0,1-3-.14V18a5.1,5.1,0,0,0,2.62-.38,1.63,1.63,0,0,0,1-1.54c0-1.49-1.21-2.24-3.64-2.24V11.88h-3.36l1.92-1H405.2a2,2,0,0,0-1-1.56,8.16,8.16,0,0,0-2.14-.92,23.78,23.78,0,0,0-2.74-.6,18.58,18.58,0,0,1-2.76-.66,8.22,8.22,0,0,1-2.22-1.1A2.83,2.83,0,0,1,393.2,4.2L398,1.32a1.75,1.75,0,0,0,1,1.54,13,13,0,0,0,2.48,1.06c1,.32,2.07.63,3.24.94A15.55,15.55,0,0,1,408,6.08,8.22,8.22,0,0,1,410.44,8a4.28,4.28,0,0,1,1,2.94h3l-1.92,1h-8.2a25,25,0,0,1,0,6,7.37,7.37,0,0,1-1.2,3.32A3.49,3.49,0,0,1,402.6,21.8Zm-7.88-7.52a9.57,9.57,0,0,0,1.46,2.28,1.91,1.91,0,0,0,1.14.7.81.81,0,0,0,.76-.48,2.83,2.83,0,0,0,.32-1.3,7.39,7.39,0,0,0-.14-1.76,6.25,6.25,0,0,0-.66-1.84h-5.76a4.41,4.41,0,0,1,1.54.68A4.06,4.06,0,0,1,394.72,14.28Z"/><path d="M425.84,10.92l-1.92,1h-2.48V29.16L414.24,33V11.88h-4.32l1.92-1Z"/><path d="M446.84,11.88h-2.68v16.8L437,33l-11.52-6.72V18.12L437,11.88h-13.8l1.44-1h23.68ZM428.32,30.12a2.09,2.09,0,0,1,1,.24,2.41,2.41,0,0,1,.76.6,3.15,3.15,0,0,1,.48.78,2,2,0,0,1,.18.78,2.4,2.4,0,1,1-4.8,0,2,2,0,0,1,.18-.78,3.15,3.15,0,0,1,.48-.78,2.57,2.57,0,0,1,.74-.6A2.05,2.05,0,0,1,428.32,30.12Zm9.12-11.52-5.76,2.88,5.76,3.36Z"/></g></g></svg>